<svg aria-hidden="true" style="width:0;height:0;position:absolute;overflow:hidden" xmlns="http://www.w3.org/2000/svg"><defs><symbol id="icon-facebook" viewBox="0 0 14 32"><path d="M13.513 15.97H9.337v15.39H3.01V15.97H.001v-5.409H3.01v-3.5C3.01 4.558 4.192.639 9.394.639l4.687.02v5.25H10.68c-.558 0-1.342.28-1.342 1.474v3.183h4.729l-.553 5.403z"/></symbol><symbol id="icon-github" viewBox="0 0 32 32"><path d="M16.003.941C7.732.941.944 7.729.944 16c0 7.058 4.953 13.47 11.529 15.059v-4.982c-.652.143-1.251.147-1.915-.049-.89-.263-1.613-.855-2.15-1.759-.342-.577-.949-1.203-1.581-1.157l-.155-1.758c1.368-.117 2.551.833 3.254 2.014.312.525.671.832 1.132.968.446.131.924.068 1.481-.129.14-1.116.651-1.534 1.037-2.122-3.922-.585-5.486-2.667-6.106-4.309-.822-2.181-.381-4.905 1.073-6.627.028-.034.079-.121.059-.183-.667-2.014.146-3.679.176-3.856.769.228.894-.229 3.342 1.258l.423.254c.177.105.121.045.298.032a12.77 12.77 0 0 1 3.16-.445 12.84 12.84 0 0 1 3.204.456l.137.014c-.012-.002.037-.009.12-.058 3.057-1.852 2.947-1.247 3.767-1.513.03.177.831 1.87.172 3.858-.089.274 2.65 2.782 1.132 6.809-.62 1.643-2.183 3.724-6.106 4.309.503.766 1.107 1.175 1.104 2.756v6.219C26.108 29.47 31.06 23.058 31.06 16 31.06 7.729 24.273.941 16.001.941z"/></symbol><symbol id="icon-telegram" viewBox="0 0 40 32"><path d="m15.732 20.751-.635 8.339c.909 0 1.302-.364 1.774-.802l4.261-3.801 8.829 6.035c1.619.842 2.76.399 3.197-1.39l5.797-25.346c.514-2.234-.866-3.108-2.443-2.56L2.447 13.398c-2.325.842-2.29 2.052-.395 2.6l8.709 2.528L30.99 6.712c.952-.588 1.818-.263 1.106.326L15.733 20.751z"/></symbol><symbol id="icon-close" viewBox="0 0 32 32"><path d="M18.088 16 30.37 3.719a1.481 1.481 0 0 0-2.089-2.089L16 13.911 3.719 1.615a1.487 1.487 0 1 0-2.104 2.104L13.911 16 1.615 28.281a1.484 1.484 0 0 0 .423 2.505 1.472 1.472 0 0 0 1.186-.046c.184-.089.347-.215.48-.37L16 18.088 28.281 30.37a1.481 1.481 0 0 0 2.089-2.089L18.088 16z"/></symbol><symbol id="icon-Burger" viewBox="0 0 50 32"><path fill="none" stroke="#fff" style="stroke:var(--color1,#fff)" stroke-linecap="round" stroke-width="4.571" d="M2.286 2.286H48M2.286 16H48M2.286 29.714H48"/></symbol><symbol id="icon-btn-arrow" viewBox="0 0 22 32"><path d="M1.939.122A4.918 4.918 0 0 0 .157 2.044l-.013.027L0 2.369v1.853l.099.195c.15.301.48.714.794.998.931.799 3.093 2.568 5.266 4.325l1.38 1.08c3.501 2.826 6.365 5.158 6.365 5.178 0 .022-2.864 2.352-6.365 5.181a514.29 514.29 0 0 0-7.817 6.343l1.171-.941c-.314.288-.643.698-.794.998L0 27.774v1.856l.144.294c.378.774 1.107 1.562 1.805 1.952l.214.118h1.888l.294-.15c.163-.08.4-.224.528-.314.502-.349 16.218-13.072 16.464-13.325.467-.486.858-1.152 1.005-1.722.074-.285.074-.906.003-1.187a3.303 3.303 0 0 0-.913-1.435l-.002-.002C21.104 13.545 5.238.707 4.841.438a5.995 5.995 0 0 0-.468-.275L4.338.146 4.05-.001H3.1l-.954.003-.208.118z"/></symbol><symbol id="icon-arrow" viewBox="0 0 82 32"><path d="M81.414 17.414a2 2 0 0 0 0-2.828L68.686 1.858a2 2 0 1 0-2.828 2.828L77.172 16 65.858 27.314a2 2 0 1 0 2.828 2.828l12.728-12.728zM0 18h80v-4H0v4z"/></symbol><symbol id="icon-arrow-up2" viewBox="0 0 32 32"><path d="m27.414 12.586-10-10a2 2 0 0 0-2.828 0l-10 10a2 2 0 1 0 2.828 2.828L14 8.828V28a2 2 0 1 0 4 0V8.828l6.586 6.586c.39.39.902.586 1.414.586s1.024-.195 1.414-.586a2 2 0 0 0 0-2.828z"/></symbol></defs></svg>